<?xml version="1.0" standalone="no"?>
<!DOCTYPE svg PUBLIC "-//W3C//DTD SVG 20010904//EN"
 "http://www.w3.org/TR/2001/REC-SVG-20010904/DTD/svg10.dtd">
<svg version="1.0" xmlns="http://www.w3.org/2000/svg"
 width="460.000000pt" height="460.000000pt" viewBox="0 0 460.000000 460.000000"
 preserveAspectRatio="xMidYMid meet">

<g transform="translate(0.000000,460.000000) scale(0.100000,-0.100000)"
fill="#000000" stroke="none">
<path d="M0 4510 c0 -83 1 -90 20 -90 11 0 20 5 20 10 0 6 9 10 20 10 11 0 20
5 20 10 0 6 14 10 30 10 17 0 30 -5 30 -11 0 -6 -6 -9 -13 -6 -10 4 -13 -2 -9
-19 4 -23 42 -36 42 -14 0 6 23 10 50 10 46 0 67 12 37 23 -7 2 -8 8 -3 13 5
5 11 4 13 -3 3 -9 27 -13 73 -13 61 0 68 -2 73 -21 4 -16 11 -20 26 -16 11 3
25 0 30 -7 12 -14 61 -19 61 -6 0 6 14 10 30 10 23 0 30 -4 30 -20 0 -14 7
-20 23 -21 12 0 16 -3 9 -6 -6 -2 -12 -9 -12 -15 0 -6 8 -4 18 4 21 19 56 14
89 -12 13 -10 31 -16 40 -13 13 5 14 0 8 -35 -4 -28 -3 -42 4 -42 6 0 11 18
11 40 0 22 4 40 9 40 4 0 6 -19 4 -42 -3 -24 -2 -40 1 -37 3 3 7 19 8 35 2 29
28 64 48 64 16 0 40 -26 40 -43 0 -11 16 -14 70 -15 39 0 70 4 70 9 0 5 18 9
40 9 22 0 40 5 40 10 0 6 5 10 10 10 6 0 10 -13 10 -30 l0 -30 80 0 c73 0 80
-2 80 -20 0 -18 7 -20 80 -20 47 0 80 -4 80 -10 0 -6 113 -10 320 -10 207 0
320 -4 320 -10 0 -6 33 -10 80 -10 47 0 80 4 80 10 0 6 33 10 80 10 47 0 80
-4 80 -10 0 -6 30 -10 70 -10 40 0 70 4 70 10 0 6 9 10 20 10 11 0 20 5 20 10
0 6 27 10 60 10 33 0 60 -4 60 -10 0 -5 9 -10 20 -10 11 0 20 -4 20 -10 0 -5
49 -11 113 -12 110 -3 112 -3 110 -26 -2 -19 -1 -21 11 -10 8 7 11 17 6 22
-10 10 -2 36 12 36 6 0 8 -7 4 -15 -3 -8 -2 -15 3 -15 12 0 41 35 41 51 0 9 3
10 8 3 5 -8 25 -5 66 11 53 20 57 23 40 34 -18 12 -18 12 1 5 11 -4 47 -10 81
-15 83 -11 162 -44 209 -87 22 -20 31 -26 20 -12 -11 14 -24 28 -29 31 -5 4
-6 12 -2 18 5 7 1 9 -11 4 -17 -6 -17 -5 0 13 16 17 16 19 -5 31 -22 13 -22
13 7 7 28 -6 29 -6 10 9 -17 13 -22 13 -39 1 -11 -8 -27 -14 -36 -13 -10 0
-11 2 -2 6 6 2 10 9 6 14 -3 5 -2 8 3 7 14 -4 53 13 53 23 0 5 9 9 20 9 11 0
20 5 20 10 0 6 14 10 30 10 17 0 30 -5 30 -11 0 -8 16 -10 49 -6 38 4 51 2 55
-9 3 -8 11 -14 18 -14 9 0 9 3 0 12 -15 15 -15 28 -1 28 7 0 20 10 31 22 16
18 21 20 28 8 7 -11 11 -11 24 -1 9 7 13 17 10 22 -5 8 10 13 29 10 5 -1 5 8
2 20 -6 17 -3 20 12 17 10 -2 17 -10 15 -17 -3 -14 21 -41 37 -41 6 0 11 -9
11 -20 0 -13 7 -20 20 -20 11 0 20 -4 20 -10 0 -5 18 -10 40 -10 34 0 40 3 40
21 0 20 4 21 90 17 54 -2 91 1 94 7 2 6 7 6 12 2 5 -4 2 -12 -5 -17 -9 -5 -11
-14 -6 -26 7 -16 9 -14 18 14 10 33 27 44 27 17 0 -8 -4 -15 -10 -15 -5 0 -10
-9 -10 -20 0 -11 -5 -20 -11 -20 -5 0 -7 -5 -3 -11 4 -8 9 -7 15 2 8 12 11 11
19 -1 7 -11 9 -7 5 15 -4 23 1 37 24 63 27 30 71 44 71 22 0 -6 38 -10 95 -10
57 0 95 -4 95 -10 0 -6 27 -10 60 -10 l60 0 0 120 0 120 -2300 0 -2300 0 0
-90z m3750 60 c0 -5 -7 -10 -15 -10 -8 0 -15 5 -15 10 0 6 7 10 15 10 8 0 15
-4 15 -10z m7 -36 c-3 -3 -12 -4 -19 -1 -8 3 -5 6 6 6 11 1 17 -2 13 -5z m33
-74 c0 -5 -7 -10 -15 -10 -8 0 -15 5 -15 10 0 6 7 10 15 10 8 0 15 -4 15 -10z
m-70 -25 c0 -9 -6 -12 -16 -8 -13 5 -13 7 -2 14 17 11 18 11 18 -6z m-3069
-48 c-13 -13 -26 -3 -16 12 3 6 11 8 17 5 6 -4 6 -10 -1 -17z m34 -17 c3 -5
-1 -10 -10 -10 -9 0 -13 5 -10 10 3 6 8 10 10 10 2 0 7 -4 10 -10z m1979 -40
c-6 -6 -10 -3 -10 10 0 13 4 16 10 10 7 -7 7 -13 0 -20z m31 -16 c-9 -18 -15
-23 -15 -12 0 9 5 20 11 23 6 4 8 14 4 24 -4 11 -3 13 5 5 8 -8 6 -19 -5 -40z
m575 1 c0 -3 -8 -14 -17 -25 -21 -24 -55 -28 -47 -5 4 8 15 15 25 15 10 0 19
5 19 10 0 6 5 10 10 10 6 0 10 -2 10 -5z m-1990 -25 c0 -5 -18 -10 -40 -10
-22 0 -40 5 -40 10 0 6 18 10 40 10 22 0 40 -4 40 -10z m1789 -21 c-24 -15
-45 -11 -24 5 11 8 24 12 28 9 5 -3 3 -9 -4 -14z m8 -24 c0 -10 -6 -14 -14
-10 -8 3 -20 5 -26 6 -7 0 -3 4 8 9 29 12 32 12 32 -5z m327 9 c26 -10 18 -24
-14 -24 -30 0 -41 14 -17 23 6 3 13 6 14 6 1 1 8 -2 17 -5z"/>
<path d="M344 4380 c-31 -15 -35 -19 -16 -19 12 -1 31 4 42 11 10 7 23 9 27 5
11 -11 -17 -27 -49 -27 -23 0 -28 -4 -27 -22 1 -19 2 -20 6 -5 3 14 11 17 26
13 11 -3 26 -1 33 5 8 7 17 5 27 -6 9 -8 22 -15 29 -15 9 1 8 4 -4 13 -9 7
-18 23 -20 36 -4 31 -25 34 -74 11z"/>
<path d="M441 4364 c0 -11 3 -14 6 -6 3 7 2 16 -1 19 -3 4 -6 -2 -5 -13z"/>
<path d="M3715 4351 c-3 -2 -5 -14 -4 -25 0 -21 1 -21 9 -1 8 19 9 19 9 -2 1
-25 21 -33 21 -9 0 8 3 21 6 30 4 11 0 14 -16 13 -11 -1 -23 -3 -25 -6z"/>
<path d="M4258 4353 c12 -2 32 -2 45 0 12 2 2 4 -23 4 -25 0 -35 -2 -22 -4z"/>
<path d="M3660 4325 c0 -8 7 -15 15 -15 8 0 15 7 15 15 0 8 -7 15 -15 15 -8 0
-15 -7 -15 -15z"/>
<path d="M4055 4320 c-3 -5 -1 -10 4 -10 6 0 11 5 11 10 0 6 -2 10 -4 10 -3 0
-8 -4 -11 -10z"/>
<path d="M4204 4318 c-5 -8 106 0 115 9 3 2 -21 3 -52 2 -32 -1 -60 -6 -63
-11z"/>
<path d="M440 4300 c0 -5 5 -10 11 -10 5 0 7 5 4 10 -3 6 -8 10 -11 10 -2 0
-4 -4 -4 -10z"/>
<path d="M602 4290 c0 -14 2 -19 5 -12 2 6 2 18 0 25 -3 6 -5 1 -5 -13z"/>
<path d="M707 4304 c7 -3 9 -13 6 -22 -4 -15 -3 -15 6 -2 15 22 14 30 -6 29
-10 0 -13 -3 -6 -5z"/>
<path d="M736 4295 c-3 -9 -6 -26 -5 -38 1 -14 4 -9 9 13 9 37 7 52 -4 25z"/>
<path d="M3590 4290 c0 -5 7 -10 15 -10 8 0 15 5 15 10 0 6 -7 10 -15 10 -8 0
-15 -4 -15 -10z"/>
<path d="M666 4267 c4 -13 2 -17 -5 -13 -13 8 -14 -4 -2 -23 7 -10 11 -5 16
18 4 17 11 29 16 25 5 -3 9 -1 9 5 0 5 -9 9 -20 8 -15 -1 -18 -6 -14 -20z"/>
<path d="M3930 4267 c0 -15 4 -27 8 -27 10 0 9 36 -1 46 -4 4 -7 -5 -7 -19z"/>
<path d="M4058 4284 c6 -3 12 -13 13 -22 0 -10 3 -12 5 -5 3 7 13 9 22 6 12
-4 14 -3 7 4 -5 6 -21 13 -35 17 -14 3 -19 3 -12 0z"/>
<path d="M914 4262 c6 -10 42 -9 52 1 4 4 -7 7 -25 7 -18 0 -30 -4 -27 -8z"/>
<path d="M4130 4260 c0 -5 5 -10 10 -10 6 0 10 5 10 10 0 6 -4 10 -10 10 -5 0
-10 -4 -10 -10z"/>
<path d="M695 4239 c-4 -12 -3 -25 2 -29 4 -5 8 4 9 21 1 34 -2 37 -11 8z"/>
<path d="M914 4218 c-3 -4 9 -8 27 -8 18 0 29 3 25 7 -10 10 -46 11 -52 1z"/>
<path d="M3460 4191 c0 -5 5 -13 10 -16 6 -3 10 -2 10 4 0 5 -4 13 -10 16 -5
3 -10 2 -10 -4z"/>
<path d="M3494 4179 c0 -13 3 -15 13 -7 7 6 13 14 13 18 0 3 -6 7 -13 7 -7 0
-13 -8 -13 -18z"/>
<path d="M2894 4097 c2 -15 -1 -30 -5 -33 -5 -3 -9 -13 -9 -22 1 -13 5 -10 16
8 l15 25 -6 -25 c-5 -22 -4 -23 5 -7 8 12 8 22 2 30 -5 7 -12 21 -16 32 -3 12
-4 9 -2 -8z"/>
<path d="M2925 4111 c-3 -5 -1 -12 4 -15 5 -3 11 1 15 9 6 16 -9 21 -19 6z"/>
<path d="M3500 4095 c0 -5 5 -17 10 -25 5 -8 10 -10 10 -5 0 6 -5 17 -10 25
-5 8 -10 11 -10 5z"/>
<path d="M2881 3984 c0 -11 3 -14 6 -6 3 7 2 16 -1 19 -3 4 -6 -2 -5 -13z"/>
<path d="M3545 3879 c-4 -6 -5 -12 -2 -15 2 -3 7 2 10 11 7 17 1 20 -8 4z"/>
<path d="M2158 3866 c-37 -7 -73 -18 -81 -24 -11 -9 -22 -10 -41 -2 -37 14
-43 13 -20 -5 15 -11 16 -14 4 -15 -9 0 -42 -13 -73 -30 -32 -16 -67 -30 -77
-30 -10 0 -41 -18 -69 -40 -28 -22 -54 -40 -59 -40 -4 0 -30 -23 -57 -52 -28
-29 -42 -46 -32 -38 17 13 17 12 0 -18 -10 -17 -20 -29 -24 -27 -11 7 -48 -88
-60 -153 -10 -51 -19 -71 -50 -103 l-37 -39 -10 28 -10 27 -1 -28 c-1 -15 -8
-30 -16 -33 -17 -7 -21 -69 -5 -79 6 -3 10 -15 10 -26 0 -10 4 -19 8 -19 5 0
19 -8 30 -18 l21 -19 -24 -13 c-33 -17 -32 -24 10 -68 36 -38 50 -81 43 -132
-3 -17 0 -27 6 -23 5 4 7 0 3 -10 -3 -8 0 -20 7 -26 7 -6 21 -31 31 -56 16
-43 18 -44 38 -30 27 19 60 19 95 1 29 -15 60 -61 49 -73 -4 -3 -7 0 -7 9 0 8
-6 15 -12 16 -7 0 -33 6 -57 12 -52 13 -71 2 -71 -42 0 -42 23 -89 61 -123 18
-16 28 -23 22 -15 -22 29 -34 109 -21 133 7 12 11 26 10 30 -3 9 38 -1 51 -12
4 -4 1 -21 -8 -37 -39 -75 -3 -154 72 -159 41 -3 41 -3 37 28 -2 18 -9 48 -15
68 -15 50 -7 332 12 384 l14 40 65 1 c55 2 59 1 25 -6 l-40 -7 38 -2 c42 -1
96 23 170 75 26 19 47 30 47 25 0 -5 34 -22 75 -38 l74 -29 -30 -18 c-16 -9
-27 -21 -25 -25 5 -8 -28 -7 -112 4 -43 5 -56 3 -77 -13 l-24 -19 22 -20 c12
-11 50 -26 84 -33 35 -7 60 -16 58 -20 -3 -5 1 -11 7 -13 7 -3 0 -6 -16 -6
-44 -1 -107 -22 -146 -48 -45 -30 -32 -29 28 1 49 26 112 40 112 26 0 -4 -12
-11 -27 -15 -40 -10 -123 -49 -123 -57 0 -11 28 -10 51 2 15 8 25 6 48 -11 29
-21 31 -21 55 -5 14 9 25 20 25 24 -3 19 2 23 16 12 8 -7 12 -17 9 -22 -4 -6
-1 -14 6 -18 9 -5 -4 -11 -34 -15 -40 -6 -44 -9 -30 -20 10 -7 15 -19 11 -28
-3 -9 -1 -19 5 -23 7 -4 8 -3 4 4 -4 7 -1 12 6 13 34 2 52 9 76 31 14 13 22
17 17 9 -6 -10 -4 -12 4 -7 7 5 10 14 7 22 -3 9 2 14 14 14 19 0 25 11 20 35
-1 5 2 7 5 3 4 -4 16 4 27 17 11 14 27 25 36 25 20 0 72 -45 73 -63 1 -26 10
-64 26 -115 20 -64 8 -94 -46 -120 -31 -15 -33 -17 -14 -20 27 -4 49 -27 33
-37 -6 -4 -9 -1 -8 7 5 21 -78 23 -109 3 -18 -12 -22 -20 -14 -28 8 -8 22 -5
51 12 33 19 40 20 40 7 0 -9 4 -16 9 -16 5 0 5 -16 0 -37 -14 -62 -10 -70 12
-25 26 52 45 54 51 6 4 -36 -11 -64 -34 -64 -6 0 -19 -10 -29 -22 -11 -11 -19
-18 -19 -14 0 3 -13 0 -29 -9 -19 -9 -32 -11 -36 -5 -3 6 -1 10 6 10 7 0 10 3
6 6 -3 4 -18 -3 -33 -15 -16 -13 -41 -21 -64 -21 -26 0 -40 -5 -44 -16 -9 -23
-2 -27 21 -15 50 27 233 44 233 21 0 -5 5 -10 11 -10 5 0 7 5 3 12 -4 6 -3 8
4 5 15 -10 3 -43 -16 -43 -9 0 -35 -1 -56 -2 -36 -2 -38 -3 -21 -16 18 -13 18
-14 -3 -25 -35 -19 -26 -26 33 -27 30 0 60 -5 67 -12 9 -9 9 -12 -1 -12 -10 0
-11 -3 -2 -14 8 -10 9 -16 1 -21 -6 -4 -9 -1 -8 7 5 22 -24 14 -43 -12 -10
-14 -20 -35 -22 -48 -6 -40 -42 -63 -100 -64 -29 -1 -65 5 -82 12 -36 16 -115
39 -115 33 0 -2 42 -24 93 -49 66 -32 99 -43 117 -39 14 4 21 3 17 -1 -4 -5
20 -14 55 -21 75 -15 93 -31 93 -83 0 -30 -7 -46 -25 -63 -14 -13 -31 -22 -38
-19 -17 5 -15 -30 3 -54 19 -25 19 -68 -1 -85 -9 -7 -14 -22 -11 -35 4 -21 1
-22 -27 -18 -123 22 -266 91 -371 180 -34 29 -66 50 -70 46 -5 -4 -5 -1 -1 6
5 8 -6 28 -29 54 -39 43 -39 42 -19 132 6 26 5 28 -17 21 -63 -20 -71 -26 -96
-82 -28 -65 -95 -142 -163 -189 -25 -17 -117 -66 -205 -109 -88 -43 -167 -84
-175 -91 -8 -7 -73 -42 -145 -79 -273 -139 -366 -237 -451 -475 -22 -62 -24
-65 -53 -64 -17 1 -31 -2 -31 -7 0 -5 14 -9 30 -9 52 0 36 -26 -22 -36 l-53
-8 42 -4 c24 -2 43 -6 43 -10 0 -4 -12 -52 -25 -107 -14 -55 -25 -108 -25
-117 0 -17 -21 -18 -295 -18 l-295 0 0 -145 0 -145 266 0 266 0 -7 -27 c-6
-24 -34 -224 -35 -245 0 -5 806 -8 1790 -8 1187 0 1790 3 1790 10 0 6 95 10
265 10 l266 0 -3 79 c-2 72 -3 78 -22 73 -15 -4 -18 -1 -13 11 5 12 -1 18 -21
23 -15 3 -47 12 -72 19 -25 8 -62 17 -83 21 -20 3 -41 11 -45 18 -4 6 -19 11
-34 12 -16 0 -89 1 -163 2 -74 1 -134 5 -133 10 0 4 -1 14 -4 22 -3 8 -13 41
-21 73 l-16 58 22 -7 c12 -3 34 -13 49 -20 15 -8 38 -14 51 -14 13 0 46 -11
73 -25 27 -14 55 -23 62 -20 7 3 10 0 7 -5 -3 -6 4 -10 17 -10 13 0 32 -7 42
-15 11 -8 32 -15 47 -15 15 0 30 -4 34 -9 3 -6 26 -13 51 -17 25 -3 51 -13 59
-20 8 -8 35 -14 64 -14 l51 0 0 98 c0 98 0 99 -27 111 -15 7 -45 16 -67 21
-184 37 -209 40 -368 40 -121 0 -168 -3 -168 -12 0 -6 -3 -9 -6 -6 -5 5 -44
209 -44 230 0 5 40 7 89 6 49 -2 87 0 84 5 -2 4 -44 7 -92 7 l-87 0 -24 82
c-13 46 -27 89 -33 95 -5 7 -7 22 -4 33 3 11 1 18 -4 14 -5 -3 -9 1 -9 9 0 7
-12 38 -26 68 -15 30 -46 95 -69 144 -44 96 -78 133 -150 166 -22 10 -74 34
-115 52 -41 19 -86 38 -100 42 -14 4 -41 18 -60 31 -48 32 -161 96 -245 139
-94 47 -94 47 -155 148 -33 55 -65 97 -87 110 l-34 22 2 122 c2 67 6 120 10
117 4 -2 12 4 18 13 6 10 11 14 11 9 0 -5 -8 -19 -17 -30 -12 -14 -9 -13 10 4
34 29 53 72 55 117 0 17 8 44 17 60 15 27 15 27 10 3 -16 -64 -16 -66 -1 -40
8 14 22 54 31 89 11 45 25 73 47 93 19 17 28 34 24 44 -3 8 -2 12 4 9 15 -9
120 210 120 250 0 35 0 35 38 30 20 -3 44 -1 52 4 12 8 11 14 -8 34 l-23 25
43 -5 c36 -4 46 -1 63 18 11 12 14 19 7 15 -7 -4 -24 0 -39 9 l-26 18 38 13
c48 16 78 45 70 67 -4 8 -13 13 -21 10 -8 -3 -14 -1 -15 3 0 5 -2 21 -4 35 -3
23 1 28 26 33 28 5 94 64 84 75 -3 3 -12 -5 -21 -17 -17 -24 -58 -30 -71 -9
-14 22 -12 38 5 45 12 5 4 9 -23 12 -27 3 -40 10 -40 20 0 8 -9 15 -20 15 -11
0 -20 5 -21 10 0 6 -6 23 -12 38 -18 42 -14 46 7 11 11 -18 24 -35 30 -39 6
-3 0 10 -14 31 -14 20 -25 41 -25 46 0 5 -5 6 -12 2 -6 -4 -8 -3 -5 3 4 6 -2
37 -13 69 -11 33 -20 67 -20 77 0 11 -4 15 -12 11 -7 -4 -8 -3 -4 4 7 12 -23
86 -46 112 -7 8 -40 33 -73 55 -33 22 -64 44 -70 50 -5 6 -30 17 -55 24 -57
18 -130 52 -130 62 0 4 -9 5 -20 2 -12 -3 -20 0 -20 6 0 7 -6 11 -12 10 -26
-3 -39 1 -33 11 3 5 0 7 -7 5 -8 -3 -36 1 -63 10 -28 8 -78 15 -112 15 -41 0
-67 5 -76 15 -10 10 -17 11 -19 4 -3 -8 -23 -7 -69 5 -74 18 -98 19 -191 2z
m974 -340 c7 -13 7 -16 -1 -12 -6 4 -18 22 -27 39 -14 30 -14 31 1 12 9 -11
21 -28 27 -39z m-1522 -52 c-10 -27 -19 -41 -20 -32 0 17 31 90 37 85 1 -2 -6
-25 -17 -53z m625 -422 c-3 -3 -11 0 -18 7 -9 10 -8 11 6 5 10 -3 15 -9 12
-12z m42 -8 c-3 -3 -12 -4 -19 -1 -8 3 -5 6 6 6 11 1 17 -2 13 -5z m495 -252
c-7 -2 -10 -7 -7 -12 3 -4 -3 -10 -14 -13 -15 -4 -16 -1 -7 18 6 14 16 21 25
17 10 -4 11 -7 3 -10z m205 -54 c-3 -7 -5 -2 -5 12 0 14 2 19 5 13 2 -7 2 -19
0 -25z m132 -32 c-9 -8 -10 -7 -5 7 3 10 7 28 7 40 2 16 3 14 6 -7 3 -16 -1
-34 -8 -40z m-42 -8 c-3 -8 -6 -5 -6 6 -1 11 2 17 5 13 3 -3 4 -12 1 -19z
m-15 -70 c-7 -7 -12 -8 -12 -2 0 6 3 14 7 17 3 4 9 5 12 2 2 -3 -1 -11 -7 -17z
m-75 -30 c-3 -7 -5 -2 -5 12 0 14 2 19 5 13 2 -7 2 -19 0 -25z m63 -48 c-16
-30 -22 -19 -7 13 6 14 13 22 15 17 2 -5 -2 -19 -8 -30z m-413 -52 c-3 -8 -6
-5 -6 6 -1 11 2 17 5 13 3 -3 4 -12 1 -19z m-102 -8 c-3 -5 -12 -10 -18 -10
-7 0 -6 4 3 10 19 12 23 12 15 0z m485 6 c0 -2 -8 -10 -17 -17 -16 -13 -17
-12 -4 4 13 16 21 21 21 13z m-573 -232 c-3 -3 -12 -4 -19 -1 -8 3 -5 6 6 6
11 1 17 -2 13 -5z m360 -416 c-3 -7 -5 -2 -5 12 0 14 2 19 5 13 2 -7 2 -19 0
-25z m-577 -332 c0 -2 -8 -10 -17 -17 -16 -13 -17 -12 -4 4 13 16 21 21 21 13z"/>
<path d="M2884 3790 c0 -10 2 -17 5 -14 2 2 13 -8 23 -23 10 -16 18 -25 18
-21 0 7 -40 78 -44 78 -1 0 -2 -9 -2 -20z"/>
<path d="M2007 2924 c-10 -11 3 -24 24 -24 23 0 25 15 3 24 -19 7 -19 7 -27 0z"/>
<path d="M1856 2435 c4 -8 8 -15 10 -15 2 0 4 7 4 15 0 8 -4 15 -10 15 -5 0
-7 -7 -4 -15z"/>
<path d="M1882 2329 c6 -16 13 -28 15 -25 8 8 -6 56 -17 56 -5 0 -5 -13 2 -31z"/>
<path d="M1910 2245 c0 -5 5 -17 10 -25 5 -8 10 -10 10 -5 0 6 -5 17 -10 25
-5 8 -10 11 -10 5z"/>
<path d="M368 953 c6 -2 18 -2 25 0 6 3 1 5 -13 5 -14 0 -19 -2 -12 -5z"/>
<path d="M583 933 c9 -2 23 -2 30 0 6 3 -1 5 -18 5 -16 0 -22 -2 -12 -5z"/>
<path d="M0 892 c0 -10 76 -9 86 1 4 4 -14 7 -39 7 -26 0 -47 -4 -47 -8z"/>
<path d="M3963 893 c9 -2 23 -2 30 0 6 3 -1 5 -18 5 -16 0 -22 -2 -12 -5z"/>
<path d="M533 883 c9 -2 25 -2 35 0 9 3 1 5 -18 5 -19 0 -27 -2 -17 -5z"/>
<path d="M573 853 c15 -2 37 -2 50 0 12 2 0 4 -28 4 -27 0 -38 -2 -22 -4z"/>
<path d="M208 843 c7 -3 16 -2 19 1 4 3 -2 6 -13 5 -11 0 -14 -3 -6 -6z"/>
<path d="M248 843 c6 -2 18 -2 25 0 6 3 1 5 -13 5 -14 0 -19 -2 -12 -5z"/>
<path d="M375 840 c-23 -6 -25 -8 -8 -9 12 0 30 -4 40 -7 13 -4 15 -3 4 4 -11
8 -11 10 0 15 20 8 -1 6 -36 -3z"/>
<path d="M445 829 c4 -5 22 -9 42 -9 45 0 40 5 -10 13 -22 3 -35 2 -32 -4z"/>
<path d="M4288 823 c6 -2 18 -2 25 0 6 3 1 5 -13 5 -14 0 -19 -2 -12 -5z"/>
<path d="M170 808 c0 -4 9 -8 20 -8 11 0 20 4 20 9 0 6 -9 9 -20 8 -11 -1 -20
-5 -20 -9z"/>
<path d="M275 810 c-3 -5 -1 -10 4 -10 6 0 11 5 11 10 0 6 -2 10 -4 10 -3 0
-8 -4 -11 -10z"/>
<path d="M3918 813 c6 -2 18 -2 25 0 6 3 1 5 -13 5 -14 0 -19 -2 -12 -5z"/>
<path d="M4529 808 c33 -6 49 -13 41 -18 -15 -9 -5 -30 16 -30 8 0 14 10 14
24 0 25 -31 37 -94 35 -22 -1 -16 -4 23 -11z"/>
<path d="M317 799 c7 -7 15 -10 18 -7 3 3 -2 9 -12 12 -14 6 -15 5 -6 -5z"/>
<path d="M473 803 c9 -2 25 -2 35 0 9 3 1 5 -18 5 -19 0 -27 -2 -17 -5z"/>
<path d="M410 790 c8 -5 22 -9 30 -9 10 0 8 3 -5 9 -27 12 -43 12 -25 0z"/>
<path d="M3975 791 l40 -5 -50 -6 c-35 -5 -17 -7 65 -7 93 -1 107 1 70 8 -25
5 -51 7 -57 4 -7 -2 -13 0 -13 5 0 6 -21 9 -47 8 l-48 -1 40 -6z"/>
<path d="M63 783 c15 -2 39 -2 55 0 15 2 2 4 -28 4 -30 0 -43 -2 -27 -4z"/>
<path d="M477 783 c-3 -5 6 -8 19 -8 13 0 24 3 24 8 0 4 -9 7 -19 7 -11 0 -22
-3 -24 -7z"/>
<path d="M4165 780 c-4 -6 9 -10 31 -10 42 0 42 4 2 14 -15 3 -30 2 -33 -4z"/>
<path d="M8 773 c7 -3 16 -2 19 1 4 3 -2 6 -13 5 -11 0 -14 -3 -6 -6z"/>
<path d="M538 773 c7 -3 16 -2 19 1 4 3 -2 6 -13 5 -11 0 -14 -3 -6 -6z"/>
<path d="M44 761 c3 -4 -6 -6 -19 -3 -25 4 -25 4 -25 -73 l0 -77 283 3 c298 3
315 6 304 49 -3 11 0 20 6 21 7 0 -9 7 -35 14 -51 14 -251 31 -306 26 -30 -2
-72 5 -157 26 -22 6 -6 9 65 13 l95 6 -108 2 c-60 1 -106 -2 -103 -7z"/>
<path d="M288 753 c7 -3 16 -2 19 1 4 3 -2 6 -13 5 -11 0 -14 -3 -6 -6z"/>
<path d="M338 753 c12 -2 32 -2 45 0 12 2 2 4 -23 4 -25 0 -35 -2 -22 -4z"/>
<path d="M433 748 c16 -10 177 -10 177 0 0 5 -43 8 -95 8 -52 0 -89 -4 -82 -8z"/>
<path d="M4134 742 c5 -9 64 -7 73 2 4 3 -13 6 -36 6 -23 0 -40 -4 -37 -8z"/>
<path d="M4315 743 c44 -2 84 -8 89 -13 14 -14 23 -12 23 5 0 12 -17 15 -96
13 l-96 -2 80 -3z"/>
<path d="M4480 736 c30 -8 40 -15 30 -19 -11 -5 -9 -6 5 -4 11 1 21 10 23 20
3 14 -4 17 -50 16 l-53 -1 45 -12z"/>
<path d="M4556 735 c-4 -11 1 -15 19 -15 16 0 25 6 25 15 0 8 -9 15 -19 15
-10 0 -21 -7 -25 -15z"/>
<path d="M4240 704 c-33 -12 -28 -13 63 -13 88 -1 97 1 83 14 -8 8 -23 15 -33
15 -15 0 -16 -2 -3 -10 13 -9 13 -10 0 -10 -8 0 -29 4 -45 8 -20 6 -42 5 -65
-4z"/>
<path d="M3970 689 c-27 -5 -19 -7 33 -8 37 0 67 1 67 3 0 8 -66 11 -100 5z"/>
<path d="M4478 693 c23 -2 61 -2 85 0 23 2 4 4 -43 4 -47 0 -66 -2 -42 -4z"/>
<path d="M4093 683 c9 -2 25 -2 35 0 9 3 1 5 -18 5 -19 0 -27 -2 -17 -5z"/>
<path d="M4186 679 c11 -4 64 -7 119 -7 118 1 100 6 -39 11 -54 1 -90 0 -80
-4z"/>
<path d="M3993 657 c76 -28 167 -39 380 -44 222 -5 227 -5 227 15 0 19 -8 20
-202 26 -376 11 -428 12 -405 3z"/>
<path d="M142 583 c82 -2 214 -2 295 0 82 1 15 3 -147 3 -162 0 -229 -2 -148
-3z"/>
<path d="M4260 561 c0 -17 33 -21 186 -21 130 0 154 2 154 15 0 13 -26 15
-170 15 -93 0 -170 -4 -170 -9z"/>
<path d="M4053 543 c37 -2 97 -2 135 0 37 2 6 3 -68 3 -74 0 -105 -1 -67 -3z"/>
<path d="M4123 293 c32 -2 81 -2 110 0 29 2 3 3 -58 3 -60 0 -84 -1 -52 -3z"/>
<path d="M220 120 c-10 -7 12 -10 73 -10 48 0 87 -4 87 -8 0 -5 -42 -8 -94 -8
-52 1 -92 -2 -89 -6 6 -11 191 -10 198 1 3 5 -5 17 -17 25 -25 18 -133 22
-158 6z"/>
</g>
</svg>
